<svg width="900" height="900" viewBox="0 0 900 900" fill="none" xmlns="http://www.w3.org/2000/svg">
  <rect width="900" height="900" rx="48" fill="#F3F4F6"/>
  <circle cx="700" cy="220" r="148" fill="#D1D5DB"/>
  <path d="M198 540C274 430 422 360 602 360C686 360 756 376 810 406C844 424 862 452 860 484C858 518 832 538 786 550L710 572C674 582 644 600 620 624L594 652C576 672 548 684 516 684H332C282 684 232 664 196 632L142 586C114 560 112 512 142 486L198 540Z" fill="#020617"/>
  <path d="M224 510C298 438 432 402 596 402C668 402 728 412 778 434C810 448 826 468 822 492C818 516 798 532 758 542L688 558C652 566 620 584 594 608L576 626C560 644 536 654 510 654H352C308 654 264 640 228 616L188 586C166 570 166 538 188 516L224 510Z" fill="#F8FAFC"/>
  <path d="M286 458H560" stroke="#111827" stroke-width="16" stroke-linecap="round"/>
  <path d="M274 580H698" stroke="#334155" stroke-width="18" stroke-linecap="round"/>
  <text x="74" y="112" fill="#111827" font-family="Arial, sans-serif" font-size="34" font-weight="700">Jordan Mid</text>
</svg>
