<svg width="900" height="900" viewBox="0 0 900 900" fill="none" xmlns="http://www.w3.org/2000/svg">
  <rect width="900" height="900" rx="48" fill="#FFFDF7"/>
  <circle cx="690" cy="220" r="148" fill="#F5F5F4"/>
  <path d="M196 534C272 430 414 374 590 374C672 374 742 388 796 414C832 432 850 460 848 490C846 522 822 542 780 552L702 570C670 578 640 596 616 620L592 644C574 664 548 674 518 674H336C288 674 238 656 202 626L148 580C122 556 122 516 150 490L196 534Z" fill="#57534E"/>
  <path d="M220 506C294 432 420 402 582 402C652 402 714 412 764 434C796 448 812 468 808 490C804 510 786 526 750 534L684 548C648 556 616 574 590 598L572 616C556 632 532 642 504 642H348C304 642 262 630 228 606L188 578C166 562 168 532 188 510L220 506Z" fill="#FAFAF9"/>
  <path d="M286 450H542" stroke="#D6D3D1" stroke-width="16" stroke-linecap="round"/>
  <path d="M274 572H694" stroke="#A8A29E" stroke-width="18" stroke-linecap="round"/>
  <text x="74" y="112" fill="#57534E" font-family="Arial, sans-serif" font-size="34" font-weight="700">Canvas Low</text>
</svg>
