<svg width="900" height="900" viewBox="0 0 900 900" fill="none" xmlns="http://www.w3.org/2000/svg">
  <rect width="900" height="900" rx="48" fill="#FAF5F2"/>
  <circle cx="708" cy="220" r="148" fill="#E7D3C2"/>
  <path d="M234 470C284 380 402 330 548 330C618 330 680 344 726 370C778 400 806 444 802 490C798 540 766 570 710 584L618 606C592 612 570 624 554 642L530 670C512 692 484 704 454 704H330C280 704 232 684 200 650L170 618C144 592 146 548 176 522L234 470Z" fill="#7C4A28"/>
  <path d="M248 450C306 388 414 354 544 354C606 354 660 366 702 386C744 406 768 434 768 466C768 498 742 522 692 536L610 558C578 566 548 584 526 606L510 624C494 642 468 652 440 652H342C300 652 260 638 228 610L204 588C184 570 186 540 206 520L248 450Z" fill="#A66A43"/>
  <path d="M328 404H498" stroke="#F3E4D5" stroke-width="18" stroke-linecap="round"/>
  <path d="M300 586H654" stroke="#3F2A1C" stroke-width="18" stroke-linecap="round"/>
  <text x="74" y="112" fill="#6B4226" font-family="Arial, sans-serif" font-size="34" font-weight="700">Chelsea Premium</text>
</svg>
