<svg width="900" height="900" viewBox="0 0 900 900" fill="none" xmlns="http://www.w3.org/2000/svg">
  <rect width="900" height="900" rx="48" fill="#F8FAFC"/>
  <circle cx="710" cy="220" r="148" fill="#CBD5E1"/>
  <path d="M232 478C284 388 408 336 556 336C626 336 690 350 736 376C786 404 814 444 812 490C810 536 776 566 720 580L636 600C608 606 584 618 568 636L546 664C528 686 500 700 468 700H336C286 700 238 680 206 646L174 614C148 588 150 546 182 520L232 478Z" fill="#020617"/>
  <path d="M248 456C302 394 414 360 550 360C612 360 668 370 712 390C754 408 778 434 778 466C778 496 754 520 706 532L624 552C592 560 562 578 538 602L524 618C508 636 482 646 454 646H348C306 646 266 632 236 606L210 584C190 566 192 538 212 518L248 456Z" fill="#111827"/>
  <path d="M318 416H530" stroke="#475569" stroke-width="16" stroke-linecap="round"/>
  <path d="M304 586H676" stroke="#0F172A" stroke-width="18" stroke-linecap="round"/>
  <text x="74" y="112" fill="#111827" font-family="Arial, sans-serif" font-size="34" font-weight="700">Elegant Leather</text>
</svg>
