<svg width="900" height="900" viewBox="0 0 900 900" fill="none" xmlns="http://www.w3.org/2000/svg">
  <rect width="900" height="900" rx="48" fill="#FFF1F2"/>
  <circle cx="700" cy="220" r="148" fill="#FECDD3"/>
  <path d="M186 550C262 430 414 360 604 360C686 360 756 376 810 404C844 422 862 450 860 480C858 514 830 536 784 548L700 572C666 582 636 600 614 624L586 654C568 674 540 684 508 684H330C280 684 230 664 194 632L140 584C112 560 110 514 140 486L186 550Z" fill="#7F1D1D"/>
  <path d="M214 518C292 434 426 398 594 398C666 398 726 410 774 432C806 446 820 466 816 490C812 514 792 532 754 542L684 558C650 566 620 584 596 608L576 628C560 646 536 656 510 656H350C302 656 258 642 224 616L186 586C164 568 164 536 182 514L214 518Z" fill="#EF4444"/>
  <path d="M286 460L540 424" stroke="#FCA5A5" stroke-width="14" stroke-linecap="round"/>
  <path d="M270 582H694" stroke="#450A0A" stroke-width="18" stroke-linecap="round"/>
  <text x="74" y="112" fill="#991B1B" font-family="Arial, sans-serif" font-size="34" font-weight="700">Running Red</text>
</svg>
