<svg width="900" height="900" viewBox="0 0 900 900" fill="none" xmlns="http://www.w3.org/2000/svg">
  <rect width="900" height="900" rx="48" fill="#EFF6FF"/>
  <circle cx="690" cy="220" r="150" fill="#BFDBFE"/>
  <path d="M186 540C270 430 424 366 602 366C688 366 758 380 810 406C844 424 862 452 860 480C858 512 832 534 790 546L706 570C674 580 646 598 624 620L594 650C576 668 550 678 520 678H332C282 678 232 658 196 626L142 580C114 556 112 510 142 484L186 540Z" fill="#1E3A8A"/>
  <path d="M214 512C292 438 426 404 588 404C658 404 720 414 770 436C802 450 818 470 816 494C814 516 796 532 760 540L688 556C650 564 616 582 590 608L570 628C554 644 532 654 506 654H352C304 654 262 640 226 614L184 582C162 566 162 536 178 514L214 512Z" fill="#F8FAFC"/>
  <path d="M284 478L566 434" stroke="#60A5FA" stroke-width="14" stroke-linecap="round"/>
  <path d="M274 574H692" stroke="#1E40AF" stroke-width="18" stroke-linecap="round"/>
  <text x="74" y="112" fill="#1E3A8A" font-family="Arial, sans-serif" font-size="34" font-weight="700">Ultra Boost</text>
</svg>
